<mxfile host="app.diagrams.net" agent="Mozilla/5.0 (Windows NT 10.0; Win64; x64; rv:128.0) Gecko/20100101 Firefox/128.0" version="24.7.4">
  <diagram name="PÃ¡gina-1" id="v2dG6gvhrDBx7uOPlUMe">
    <mxGraphModel dx="2514" dy="878" grid="1" gridSize="10" guides="1" tooltips="1" connect="1" arrows="1" fold="1" page="1" pageScale="1" pageWidth="827" pageHeight="1169" math="0" shadow="0">
      <root>
        <mxCell id="0" />
        <mxCell id="1" parent="0" />
        <mxCell id="G508FOYGhCPixcz0TGum-64" style="edgeStyle=orthogonalEdgeStyle;rounded=0;orthogonalLoop=1;jettySize=auto;html=1;entryX=0.001;entryY=0.627;entryDx=0;entryDy=0;fillColor=#d80073;strokeColor=#A50040;strokeWidth=4;entryPerimeter=0;" parent="1" source="Mg3yFcx8kAndvRIRyK6S-6" target="Mg3yFcx8kAndvRIRyK6S-9" edge="1">
          <mxGeometry relative="1" as="geometry">
            <Array as="points">
              <mxPoint y="520" />
              <mxPoint y="241" />
            </Array>
          </mxGeometry>
        </mxCell>
        <mxCell id="G508FOYGhCPixcz0TGum-65" style="edgeStyle=orthogonalEdgeStyle;rounded=0;orthogonalLoop=1;jettySize=auto;html=1;entryX=0;entryY=0.5;entryDx=0;entryDy=0;strokeWidth=4;fillColor=#d80073;strokeColor=#A50040;" parent="1" source="Mg3yFcx8kAndvRIRyK6S-6" target="G508FOYGhCPixcz0TGum-40" edge="1">
          <mxGeometry relative="1" as="geometry" />
        </mxCell>
        <mxCell id="Mg3yFcx8kAndvRIRyK6S-6" value="&lt;font style=&quot;font-size: 20px;&quot;&gt;CORE LAYER&lt;br style=&quot;font-size: 20px;&quot;&gt;&lt;/font&gt;" style="swimlane;horizontal=0;whiteSpace=wrap;html=1;fontSize=20;fontStyle=1;labelBackgroundColor=none;labelBorderColor=none;startSize=40;fillColor=#FFB366;swimlaneFillColor=#FFF0DE;" parent="1" vertex="1">
          <mxGeometry x="40" y="360" width="980" height="320" as="geometry">
            <mxRectangle x="70" y="130" width="40" height="120" as="alternateBounds" />
          </mxGeometry>
        </mxCell>
        <mxCell id="Mg3yFcx8kAndvRIRyK6S-14" value="&lt;div style=&quot;font-size: 18px;&quot;&gt;Dinamiques&lt;/div&gt;&lt;div style=&quot;font-size: 18px;&quot;&gt;Learning Core&lt;br style=&quot;font-size: 18px;&quot;&gt;&lt;/div&gt;" style="rounded=1;whiteSpace=wrap;html=1;fontSize=18;fillColor=#FFB366;fontStyle=1" parent="Mg3yFcx8kAndvRIRyK6S-6" vertex="1">
          <mxGeometry x="250" y="105" width="200" height="80" as="geometry" />
        </mxCell>
        <mxCell id="krxVv9uvqGQ1HnMnjQKk-1" style="edgeStyle=orthogonalEdgeStyle;rounded=0;orthogonalLoop=1;jettySize=auto;html=1;strokeColor=#A50040;strokeWidth=4;" edge="1" parent="Mg3yFcx8kAndvRIRyK6S-6" source="Mg3yFcx8kAndvRIRyK6S-15" target="Mg3yFcx8kAndvRIRyK6S-14">
          <mxGeometry relative="1" as="geometry">
            <Array as="points">
              <mxPoint x="520" y="170" />
              <mxPoint x="520" y="170" />
            </Array>
          </mxGeometry>
        </mxCell>
        <mxCell id="Mg3yFcx8kAndvRIRyK6S-15" value="&lt;div style=&quot;font-size: 18px;&quot;&gt;Dinamiques&lt;/div&gt;&lt;div style=&quot;font-size: 18px;&quot;&gt;Workers Core&lt;br&gt;&lt;/div&gt;" style="rounded=1;whiteSpace=wrap;html=1;fontSize=18;fillColor=#FFB366;fontStyle=1" parent="Mg3yFcx8kAndvRIRyK6S-6" vertex="1">
          <mxGeometry x="580" y="105" width="200" height="80" as="geometry" />
        </mxCell>
        <mxCell id="G508FOYGhCPixcz0TGum-13" value="learning_cs" style="rounded=1;whiteSpace=wrap;html=1;fontSize=12;fillColor=#994C00;fontStyle=1;fontColor=#ffffff;" parent="Mg3yFcx8kAndvRIRyK6S-6" vertex="1">
          <mxGeometry x="305" y="65" width="90" height="30" as="geometry" />
        </mxCell>
        <mxCell id="G508FOYGhCPixcz0TGum-14" value="article" style="shape=cylinder3;whiteSpace=wrap;html=1;boundedLbl=1;backgroundOutline=1;size=8;fillColor=#666666;fontColor=#FFFFFF;fontStyle=1" parent="Mg3yFcx8kAndvRIRyK6S-6" vertex="1">
          <mxGeometry x="283" y="195" width="60" height="60" as="geometry" />
        </mxCell>
        <mxCell id="G508FOYGhCPixcz0TGum-16" value="category" style="shape=cylinder3;whiteSpace=wrap;html=1;boundedLbl=1;backgroundOutline=1;size=8;fillColor=#666666;fontColor=#FFFFFF;fontStyle=1" parent="Mg3yFcx8kAndvRIRyK6S-6" vertex="1">
          <mxGeometry x="357" y="195" width="60" height="60" as="geometry" />
        </mxCell>
        <mxCell id="G508FOYGhCPixcz0TGum-18" value="teacher" style="shape=cylinder3;whiteSpace=wrap;html=1;boundedLbl=1;backgroundOutline=1;size=8;fillColor=#666666;fontColor=#FFFFFF;fontStyle=1" parent="Mg3yFcx8kAndvRIRyK6S-6" vertex="1">
          <mxGeometry x="688.5" y="195" width="60" height="60" as="geometry" />
        </mxCell>
        <mxCell id="G508FOYGhCPixcz0TGum-19" value="workers_cs" style="rounded=1;whiteSpace=wrap;html=1;fontSize=12;fillColor=#994C00;fontStyle=1;fontColor=#ffffff;" parent="Mg3yFcx8kAndvRIRyK6S-6" vertex="1">
          <mxGeometry x="635" y="65" width="90" height="30" as="geometry" />
        </mxCell>
        <mxCell id="G508FOYGhCPixcz0TGum-20" value="admin" style="shape=cylinder3;whiteSpace=wrap;html=1;boundedLbl=1;backgroundOutline=1;size=8;fillColor=#666666;fontColor=#FFFFFF;fontStyle=1" parent="Mg3yFcx8kAndvRIRyK6S-6" vertex="1">
          <mxGeometry x="611.5" y="195" width="60" height="60" as="geometry" />
        </mxCell>
        <mxCell id="G508FOYGhCPixcz0TGum-98" value="" style="shape=image;verticalLabelPosition=bottom;labelBackgroundColor=default;verticalAlign=top;aspect=fixed;imageAspect=0;image=data:image/png,iVBORw0KGgoAAAANSUhEUgAAAMwAAADMCAYAAAA/IkzyAAAPFUlEQVR4Xu2dT4hX1xXHXxZxo0kYF60JjguDU4OaQIyFuqiBQTAYiHWRSUkWLTiSbBKUoTtd6K6ViquGWGgXgWaysBGUCFaIXUyhaqBmJGEkLjKSaBdaE900i/ad3/jMb37+fvM7573z7nvvvs+DYUY87953v+d+3v1z7r3vkZGRkf8lXCiAAioFHgEYlU4YoUBHAYChIqCAQQGAMYiFKQoADHUABQwKAIxBLExRAGCoAyhgUABgDGJhigIAQx1AAYMCAGMQC1MUABjqAAoYFAAYg1iYogDAUAdQwKAAwBjEwhQFAIY6gAIGBQDGIBamKAAw1AEUMCgAMAaxMEUBgKEOoIBBAYAxiIUpCgAMdQAFDAoAjEEsTFEAYKgDKGBQAGAMYmGKAgBDHUABgwIAYxALUxQAGOoAChgUABiDWJiiAMBQB1DAoADAGMTCFAUAhjqAAgYFAMYgFqYoADDUARQwKAAwBrEwRQGAoQ6ggEEBgDGIhSkKAAx1AAUMCgCMQSxMUQBgqAMoYFAAYAxiYYoCAEMdQAGDAgBjEAtTFAAY6gAKGBQAGINYIUy3bv5xsnHdSPL4Y8uSmU9vJjOXbobIljyUCgCMUqiyzQSUqT3PJvK7+xJgjvzxMuCU7QBl+gCjFKoss0Gg9OY3ferL5Mjxz5L5b+6W9Sikq1AAYBQilWEy+uSKZGpyUzLx8tOm5AHHJJe7McC4S7p0gjI22fva+vTnmXSc8mju3AEnt3SFbgSYQvLpb/YCpTvH+W/uJQLO9KlrdNX0rihkCTCF5Bt+cxmg9OYq4Bw5/q8OOFzlKgAwJeo78fLadObruWT0qeUl5vJD0oBTvswAU4LG2pmvErLuJAk4ZSmbJADjqG3VoPQWhRiOo3PvJwUwDpp6giJxFom3yDW1Z1PanVtR+AmZUSss4YMEAKaAlnljKf2y/Pa7/ybvffBF+vN58u133z8wkTgN4BRwkvOtAJNDUM+Zr0GgdD/W6JPLOwHOiZ1raXFy+MvzFoAxqBkalN5HE3CmJp81rw7oV0RiOAbHd5kCjEI3T1Aku4UxxeXObFaeyxscYjh6LwDMEK08YymdWasUFFm273EBjoeKtjQAZoBenjNf3qD0PvLW59OtAWlXrXdrgK0qLFgTw1laNYDp0adJoPS61nNGjRhOf3AA5r4unqBksRQZq1RxeYJDDGexB1sPTIhYShXQSJ6A4698a4HxnPnSxFL8XadLkRiOTietVeuAaQsovRXAe0atrftwWgOMJyhSGYvGUrRvNG87b3DaFsNpBTB1jqV4A6FND3C0SrVo0O8581V2LCWf+4rfRQzHpmGULQyg2CqB94xazDGcqIDxBKXqWIq9yvvcwVR0CyL9McdSfDCwpwI4EUb6PWe+6hxLsVd3nzuI4TysYyO7ZIDiA4Q2Fe8ZtSbHcBoFjCcoTY6laCu6t503OE2M4TQGGGIp3tU/f3ptBqf2wHjOfMUaS8lf9Yvd2cYYTm2BAZRilTnk3Z4zanWP4dQOGE9Q2hpLCQlLd16e4NR1H05tgCGWUlU19883ZnAqB8Zz5iuGWEr2jUupxrNXbzf2U32xxnAqBUZmvg7v21Low0JSsWIARcpx7ODWdJfk2kWv/Ctzt5MDRy82GhzPs9SqnoquDJiNYyPJ397fWbg/0NR9Kb0FP7T/hc6XyQZdde3Tax3oORW9+82zbkdVaZ8/s6sMmBN/2F7oWKCYpohl/Hbh5C6V7wAn6bS2u986q9LL26gyYG78841cZYkJlEwAGSQfO/gzkx5NB6dIDEe64GPjH5r08jKuDJi5c6+mY5dl5nLUfZ7eXKD0hjzAdI/dmviNy6Lhg1U/fT+P1IXvqQyYol2ypr9huz23IR3PnSswnmvSaZVFQRHdWtklkyb5xLvbCxMfCzh//u22ZMeLo4X0qDM4nnG28ddPJ1fSKfcqrspaGCnsxM70Y0GTfGVLtJDu6eF9m90+ZVH19GtWmb3jbDLFXuXXoisFRkT1nG6M4ZsnnlHyKmM43qD0+zpb61qY7gJ7g1OXN2xep3qCE7Lb6gmKaFe3OFvlLUxvhQKcxYo0CZw27FmqHTBZdSkyT98LYZ0Hw5oWKHtr1/Ublx4zX5kOdY+z1RaYTEDPN2zTYzierW+2/q5IDKdNoGT1sfbAlAFOyD69pgWx2niCk6f19QSlaXuWGgMM4DyMVWhwPGMpTV1h3jhgsqlovlv/A0Blj/c8Z76aCkrjumT9ui3yhr1w8hfWHk1fe2I4i2XJYjgC497Xnim8ZylLfWx8Ot2/9L2Lz6pIpJEtTLdQeVc9DxI7T5++CsctlafnRIl32apaNOlVDoAZoCTgeFWxxekATDm6qlP1bmFii+F4761XO2aAIcAUVbDg/WUDkz0eMZyCjrp/O8D46Jg7FQ0w7xz6RzK1h1XR2Qyj16EUmdOyWIpm1yjA5K7qPjdqgMmc5DkYbmrws8xYisUXPt4Pn0orBv3dbzXvPn1TwAkRSwGY8ACbc8zrJO8oeV2/eRIClMxpeX1hdnqFN7SuhenV2hucuuzD8QRFNNPsSwGYCknWZu3lpJjA8dyXkvlBM1j38oXW91XYtb6F6RW97HVZZTrZcxVx73MCzIIiADOgBnvOqJUdwykTFFqYxRUEYIa88j3B8Z5RCwEKwABMrl5RncDxjqVoTiClS0aXzAxO1TEcz5mv7n0pc+cmhmoBMAAztJIMMvCeURsWwykLlGxfitfsllc6uR0T4EbGMAVE9ganN4bjCcpSsRSviu6VTgGXlH4rwDhIXAY48lhTe55LRp9aXvgJhx1d5FXRvdIpXOASEwAYR3E9YzgejzUMlCwPr4rulY5H2ctKA2BKUNZzRi3P42lBARi7ugBj10x9R2hw8p7x5dUyeKWjFrgCQ4AJIHrZ4BQ9usironulE8AlubMAmNzS2W70juFI7kVBoUtm86FYA4xds0J3eMyoeYECMHZXAoxdM5c78oKj2ZdifUCvrpRXOtbnD2kPMCHV7pOXFhzrzJelWF4V3Ssdy7OHtm0FMFte+SiRGaQ6X4NiOGWC4tklkwWhF07uGiqxZk3a0EQqNGg8MHPnXu18UHWpS06xHH/jdGeQXPdLwJFl+7LOa3buVjLz6c3SH7loyyCwyGfkh61KEP3Hxj8svTxlZtB4YMRRUsGGXbNzt5Pdb51tBDTDyuL9/0WA0cIizyytpfigyVfjgZFD6eRHc0lLs/vNs7XvnmnK4mmTFxgLLPK8R45f7vw0+Wo8MNIdu/jRrqHdssxJQPNwdc0DjBUWyXXLK39NX1b3msxL8+Mwor6llRF7oFlcZ63AbFy3MvnT77YNHbN05xJD6yLlaXwLkzlFO5bJ7GUAKk5874MvGv3G83h4CzByhNPhfVtMH1g688l88qvfnPd41MrTiAYY6ZoJNBvHRkyixvLmMxW6x1gLzKH9L6RfI1tvykpm+hYmW5r71bHuAkcDjBQqLzRt76JpgJFZRuvLKDZYouqSZW+BvNC0uYumAcbUrKTGMcISJTBFWpq2Tgh4AxMrLNECk70Njx3cmsggNc/lfehenmcIdY8nMNOnriUHjl6IZszS64OoxjD9Kph1yrk7DRnbHP/L59HPpHkB04YJlOiBEQAm0+/MH96/OfcLO/ui8sylf0e3SkDGfLIer8jVpvFfK4CRyiDL6BcWCK7IXTcEnJlLN9L4zWeNB0ci9dJd3Zu+TB5/7NECmtxNfj11Ppm9ejt3Gk26sTXAZNB4fRBVFhJOn/4y/dDQtcb4W1qTl7aNJhM716oWrA4rmAQk3z48E+14pV/5WwVMJoDnoRQSkPv4/FfJx3+/3lmNW7ctBBkkW5//UQrLmkKtSaZfm7pgrRv0D3pLanc6DnvL9v6/QCN7WDo/6d+hLwFEAoydfTX399Z4PoOU6Z1DM41fRJlXk1a2MN1iebY2/ZwgEfIr6fKQK+lv6effSdewyd8el0C/4ScrkzWr0t8pJBvGVpqj8drnkB2rB35/KTlzfl57S5R2rQdGvJod+q3dV+NRE+a/vvdg4iDbPj1o6buA0XnOFcs6kxZPdH4XP3PZUo6x8elWjVUGaQMwXcqU1U2zVMy62jZ9L76XrgDTR0nAeVgUgFnQBGCWePVk4MjguUj8xuvtVmU6AAMwpvonkwNe8QtTxiUby6yX5hARgAGYXFVRWp3JX65PXvr5aGNbnWzqWxaYykSDZi0ZwABMLmC6b9q4Lo13bF6V7Ni2WvWWLpxhzgQk0CjT22fOX+8EWXtn4wBGLyxjGL1WS1rKeiw5HGLHi6s7vyV4OOyAQaesH0omA2T26q3kzCfX0/jPrSWnhAFG7wmA0WtltpQWaHUaNxF4sr/XpF06L5AEjDvp0hwJjH514276+z+dxaHWo4wARu9agNFr5WYprdGaVSs64MjPE/KTBiMHrRqW9Wp37i4cczv/9d1OwFP+7XWwBMDoXQsweq2itQQYvWsBRq9VtJYAo3ctwOi1itYSYPSuBRi9VtFaAozetQCj1ypaS4DRuxZg9FpFawkwetcCjF6raC0BRu9agNFrFa0lwOhdCzB6raK1BBi9awFGr1W0lgCjdy3A6LWK1hJg9K4FGL1W0VoCjN61AKPXKlpLgNG7FmD0WkVrKYeRD9tywI7LBfcDTLQY6As27IO6sqVZvlPJBTDUgVQBORXnxLvbB2ox/vrp5EpLTucfViFoYYYp1JL/n9j5dDI1uWnRwR6yo/PA0YuN+kJB2e4CmLIVblD6ciKOHOohv2WbsxyY4bWrs0EyLPmoABOLJylHEAUAJojMZBKLAgATiycpRxAFACaIzGQSiwIAE4snKUcQBQAmiMxkEosCABOLJylHEAUAJojMZBKLAgATiycpRxAFACaIzGQSiwIAE4snKUcQBQAmiMxkEosCABOLJylHEAUAJojMZBKLAgATiycpRxAFACaIzGQSiwIAE4snKUcQBQAmiMxkEosCABOLJylHEAUAJojMZBKLAgATiycpRxAFACaIzGQSiwIAE4snKUcQBQAmiMxkEosCABOLJylHEAUAJojMZBKLAgATiycpRxAFACaIzGQSiwIAE4snKUcQBQAmiMxkEosCABOLJylHEAUAJojMZBKLAgATiycpRxAFACaIzGQSiwL/Bwe0hiymUztlAAAAAElFTkSuQmCC;imageBorder=default;" parent="Mg3yFcx8kAndvRIRyK6S-6" vertex="1">
          <mxGeometry x="430" y="105" width="44" height="44" as="geometry" />
        </mxCell>
        <mxCell id="G508FOYGhCPixcz0TGum-99" value="" style="shape=image;verticalLabelPosition=bottom;labelBackgroundColor=default;verticalAlign=top;aspect=fixed;imageAspect=0;image=data:image/png,iVBORw0KGgoAAAANSUhEUgAAAIgAAACICAYAAAA8uqNSAAAIaklEQVR4Xu2dT2xVRRTGhwVsKJi6oRjKogSisbrgj4k1sSYNCVgSCgtLYheSiNEVkVR3NLEsIZq60VgTF2KkLrAkYE2gCd20iQUTkQZTlQU1IhuJWje40Hv68pC83rl35nTmnXOZbxISSO7cOfOd3ztzZu7MsKq1tfVfgwIFLAqsAiBgo0gBAAI+ChUAIAAEgIABvgKIIHztkqgJQJJwM7+TAISvXRI1AUgSbuZ3EoDwtUuiJgBJws38TgIQvnZJ1AQgSbiZ30kAwtcuiZoAJAk38zsJQPjaJVETgCThZn4nAQhfuyRqApAk3MzvJADha5dETQCShJv5nQQgfO2SqAlAknAzv5MAhK9dEjUBSBJu5ncSgPC1S6ImAEnCzfxOAhC+dknUBCBJuJnfSQDC1y6JmgAkCTfzOwlA+NolUROAJOFmficBCF+7JGoCkCTczO8kAOFrl0RNAJKEm/mdBCB87ZKoCUCScDO/kwCEr10SNQFIEm7md7JygLRvXGv2drebJ7e1mq7tbeaRdWvM+nWrlxT4869/zK3bi2bh10Uz8+0dMzH1i1nI/o3CV6AygPTv6zD9vVtM144NXr29Pn/XjJ65YcbO3/Sqh4drCqgHhIAYOd5l2h9buyKfLdz+25wa/Q6geKqoFpD12dAxeORp89qhxz27VPz46Oc3zMmPv8+Go3tB3/uwvkwlIO0bW8wnJ7tNZ5ZnxCgUTQ6+fhH5iYO46gAhOM5+sHvFQ0pZ3wFJmUIKcxAaViY/7S2Fg4aHj878YKav3lmKAuRsKjSb6dz6qNnzwiaz9/n27D0thSpQAnvwjYus4aY2/D1xfwblJnecp2j2Nnb+J3P8vavBG1AVQYaP7SzMOQiGo+/MmOlsCutS+vdtMYOvPlUICuUkvsKW2eliW4xnTo1eyxLxa0FfrQYQmsaODHVZO0cRg2Yh9GvxKS7JLuUjrtBR2/OTL2WRY42PGU15liLrtp4vgralBpDZ8QPWoSXEL4OGBPqTV2iI2rX/S2dhAYizVGEeLIoeFDmG3r0SpKGioeHo8LTzGkkRbEEMZb4kpFZ1E1REkEune3OntJRz9Axc8B5WbPrWkuAXc3MSSngpYXUtBNuh3g4VQ009aQ+df5AW4oDQtHb2XF+uX44Oz2S/6p9dfeb0XNf2Debsh7tzn6Vhpj4jcnpZAg+JA0IrpfRrbCwUPXbtH4/iAlsOQUMZhWmU/xUQB4RWTOnrbGOJMZ7W27DlEBStKGqhKALEln/4Tj19nGobZnxnMz5tVvVZ8QhiC/c0n4/1QY32lMyeO7DMZzHWEaoKhppZzG/fDORq2PbM6ajaSrUbtVMRXi4eQaQcJdVuBB9GfaU4ILYhJuaUk9ZDqN3GgiFmOWvigNiW2KMmqdkuNdpS0Fjmsq+7tDCHomgWMzL0rKGvro0lxPcXm6NtS+4TlxfM4benwMcDCohHENtCWcxwb4taMVZuq06bOCC2KScJG2OYKfowGDPvqSoo4oCQcJQP5B1noIWr2se6MBuMi3as+X6sw46yJiJPOQjlInmFs+PLN/eg532GF+woayIc9aZmx/usWwNDJKzFG4b8Pgxiw5AAIEWf4ckc7nkWly2HPtGDbAEgAoBQk2Wh2/d0nMupPM5XY+woEwKEfu2UsJYdmCJQJqZuma+zw9l0dKGexNKMiI46UDRyOZKwkh1r2FEmBAk5uXZwqvhMy0rNIzhqp+tqZ2pQ8hVQMc1tNC02JNfnfzeH35oCHA6/CpWAuCSWDn2zPkJL6kPZKTTcHVKuoipACAxaenfJH8q7Vv4ETZ/p3hCAYtdKDSB7ujeZ94eea/pZV9+ZUTl2D9cT4oBQ1Djx5s7si26HqLK0YZnO6IZa1hftTMDGRQHxveqBnEfTWpre0l1kc1my+cfivfsHq+h0/+a2lqXDTLQGQtNdnyurcCXEcrLEAKFrGugAU/0CuiLo6UPa2IWbS2sf/oe3V2fHKjZn95t1OMFCkLwyeNnM/Xg34O+wuq8SAcQVDgKDEkmfk/dFrqDpM62C5m1QerAeRaoD2RoJIBE4eknDymR2FrcocvjeA+L7+3S5N4Qg6Rn4KvkZTlMjiEvOwb0HxBeSWnK8ozCaICdpcgSxbQyqOzfEZ31fUMo+vPluJPJtX/vzTYsgZY7wuZ8jtKhHsrvGThzbYX0t91B3s3adVf6OsrK8QyJyNNJQBAknHynbuhAacnpfDB2bEkFsRxtidYorfpFTfU/+S2wqinESIDogRRfExLwDhAuJ7bYBel/Pyxecp74AxNEDRdFD4zGDzq2t5tJnvbm989l9VpZzOcrn9ZiPfa4vjhpBiqKHb8h27VCI52xDDYXwnX3jzt9rmrXrrLJ3lFX1kBKtkVzJdtnn3YXKndGEAFfiHVEjiO16Kc3Ro+4Em+2prYtEBcSWqMU4Uhn612U7hhFjphDa9pDvazogVRHYNsxUxf5QkEQFJC+Tj5FphxKj8T1Vtz+ELlEBIQPrmTz9vfYhLuz/RhBChKJ3VN3+leoTHZCVGoj6sgoAEFn91bcOQNS7SNZAACKrv/rWAYh6F8kaCEBk9VffOgBR7yJZAwGIrP7qWwcg6l0kayAAkdVffesARL2LZA0EILL6q28dgKh3kayBAERWf/WtAxD1LpI1EIDI6q++dQCi3kWyBgIQWf3Vtw5A1LtI1kAAIqu/+tYBiHoXyRoIQGT1V986AFHvIlkDAYis/upbByDqXSRrIACR1V996wBEvYtkDQQgsvqrbx2AqHeRrIEARFZ/9a0DEPUukjUQgMjqr751AKLeRbIGAhBZ/dW3DkDUu0jWQAAiq7/61gGIehfJGghAZPVX3zoAUe8iWQMBiKz+6lsHIOpdJGvgf1rA30ZNoT2xAAAAAElFTkSuQmCC;imageBorder=default;direction=south;rotation=-90;" parent="Mg3yFcx8kAndvRIRyK6S-6" vertex="1">
          <mxGeometry x="760" y="105" width="42" height="42" as="geometry" />
        </mxCell>
        <mxCell id="G508FOYGhCPixcz0TGum-40" value="APIs" style="swimlane;horizontal=1;whiteSpace=wrap;html=1;fontSize=20;fontStyle=1;labelBackgroundColor=none;labelBorderColor=none;startSize=40;fillColor=#66FFFF;swimlaneFillColor=#D6FCFF;" parent="1" vertex="1">
          <mxGeometry x="1061" y="40" width="360" height="960" as="geometry">
            <mxRectangle x="70" y="130" width="40" height="120" as="alternateBounds" />
          </mxGeometry>
        </mxCell>
        <mxCell id="G508FOYGhCPixcz0TGum-42" value="&lt;div style=&quot;font-size: 18px;&quot;&gt;Dinamiques&lt;/div&gt;&lt;div style=&quot;font-size: 18px;&quot;&gt;Api&lt;br style=&quot;font-size: 18px;&quot;&gt;&lt;/div&gt;" style="rounded=1;whiteSpace=wrap;html=1;fontSize=18;fillColor=#66FFFF;fontStyle=1" parent="G508FOYGhCPixcz0TGum-40" vertex="1">
          <mxGeometry x="80" y="460" width="200" height="80" as="geometry" />
        </mxCell>
        <mxCell id="G508FOYGhCPixcz0TGum-54" value="api" style="rounded=1;whiteSpace=wrap;html=1;fontSize=12;fillColor=#009999;fontStyle=1;fontColor=#ffffff;" parent="G508FOYGhCPixcz0TGum-40" vertex="1">
          <mxGeometry x="115" y="420" width="130" height="30" as="geometry" />
        </mxCell>
        <mxCell id="G508FOYGhCPixcz0TGum-102" value="" style="shape=image;verticalLabelPosition=bottom;labelBackgroundColor=default;verticalAlign=top;aspect=fixed;imageAspect=0;image=data:image/png,iVBORw0KGgoAAAANSUhEUgAAAMwAAADMCAYAAAA/IkzyAAAN7UlEQVR4Xu2dTYxW1RmArwvdgDbDogXjbCTYmk67UDEpmzEhJpghAVk4JGUhSSF1RWqou7KAnRobV21kIUlJCi5kmkghoSTMomMilKQtxAaDC4cgdAGJwkYX7X2/8eI3f9897/m755z73MSF4f3uOfc57zP35/w9NDY29r+KAwIQMCLwEMIYcSIIAgMCCEMiQEBBAGEUsAiFAMKQAxBQEEAYBSxCIYAw5AAEFAQQRgGLUAggDDkAAQUBhFHAIhQCCEMOQEBBAGEUsAiFAMKQAxBQEEAYBSxCIYAw5AAEFAQQRgGLUAggDDkAAQUBhFHAIhQCCEMOQEBBAGEUsAiFAMKQAxBQEEAYBSxCIYAw5AAEFAQQRgGLUAggDDkAAQUBhFHAIhQCCEMOQEBBAGEUsAiFAMKQAxBQEEAYBSxCIYAw5AAEFAQQRgGLUAggDDkAAQUBhFHAIhQCCEMOQEBBAGEUsAiFAMKQAxBQEEAYBSxCIYAw5AAEFAQQRgGLUD8EHnv0kWr/7p9U01Mbq/HH11TzX96vTn50vXrvxH+qr77+xk8hgc6CMIHActqVCYgsH/7hxWriqbFlAVeu3a12vXYuaWkQhsyORmCULE0l3j76r0r+S/VAmFRbprB6mcgilyyPZ5t3nEr26hEm2aYpp2KmsjRXvP7548lePMIk2zRlVEwry/yX9+o7zEyyF48wyTZN/hXTyiJXzDtM/u3OFVgQsJHlyrU7330l+9aixDg/4Q4Th3OvSilVFmlEhCk8lbc8+6Nq2+QT1fj6tXXfx7rqB3U/yGOPPjy46vmb9+uvUveqK5/dqeYu/7c6e2HemUbJsiCMc3qkeYKmJ33/7qcfyGFS06++/rY6M/tF/R7x74FI2qN0WRBGmxGJx9uKstJlyVAVjTh9kAVhEhdAU72JTeuq99+aHIzN8nVIJ+LbR/9Zj/P6fOQp+yILwvjKrI7PM739yerIbzarHr80VR71qbdPsiCMJmsSjRVZ3j20JXjtVpKmb7IgTPA0C1tALFmaqxiWpo+yIEzYfA569tiyDEsj81ZWG6K/2kXn0Clp0mD0w5hQSiymK1kaDPIxYHyD+ceFUmThDpOYCCbVsZFFZjGeOH297pi8MeiklP4W6byUL2vSmblv94/rr2trTYpXx5QkC8Kom7/bH9jIIo9P8mlYJBl1HNz380r+83mUJgvC+MyOwOeykeXQO5cG8+RNj4lNY9WHf3yxvvs8YvqTVeNKlAVhnNMizglsZDlweK61w3Gl2vuQplRZECZOvj8oRQZCSkLKX/C5y7eruX/cbq1BTFmayrhIU7IsCNOarn4CRJBjb05WIszwcaYeHXzgyMerrpLShSwu0sjHhed2nmp9X/JDtZuz8Fk5AneRZdsL4yuWtNrSQl3K4iJN6jMmXZsbYVwJtvxe7irSyTfqWCpNCrIgzcothjCBhTH9XNtI81I92Us7Nsz2Bd/00m3eaUq90yCMadZYxsmSqIdff87o19oedDlpaFm40yxuOoQxSmX7oC3P1I9kdd9GiCOWLC7SvPrb2ersrPvU5xD8bM6JMDbUlL+Rd5ilX8iUp1gWHlsWW2kWvpzNJL1esqYtEEZDyzLWZij8qKK6ksVWGpnufODwx5b00voZwkRqD1/SdC2LrTS7fn1u0Fmb+4EwEVvQVZpUZLGRRsa0ydi23A+EidyCttJoB1LGuizTT86lvMsgTKzMGirHRpqUNxvaV69/duT1Z1tJ7q2/mJ3J/IsZwrQ2c5iA0qS5OLOzdRJaCY9lCBPGB6OzliSNyYiGq/WWfFv3nDZik2oQwnTcMqVI89N6z8rzx6dG0kx9dzGTVEAYE0qBY0qQRq7h2vlXWkmlvLtYa+XrAIQxoRQhpgRpbn2yp5UUwrQiIsCUQM7ScIcxbWXivBLIVRqTeT+8w3hNFU7WEMhRmncP/aKa3r5xZCPKGga7XjuXdUPzDpNo8+UkzfiGtYNZpW1bbdAPk2iylVKtXKSRCXIyUa7tKGEAJneYtlbu+N9Tl8Z0RqlsAbh5x0zHNN2LRxh3hsHPkKo0Jr37DZxS5sQgTPB091NAatJoZBECm3ecqjeave8HRodnQZgO4WuLTkUarSwlrSDTe2Fslm/VJnoT76OsrqXRyiLvLjLgsm33AFumsX/XW2Fsl2+1aSDfZXUljekL/jCjUh7FmmvqrTA2y7fayjJqezvbzrzY0qS0GqdNO/j6TS+FMRnG4WOGo2lS2/ZPmJ5/OFlsrgtZvifYS2FMn8NtkqtBq0lml/n6mnKaummuC1kW35t6KYzmWVyTXDayyG9cvyKFkgZZlj/I9VIY7fKtGmlsktf2kWy4OW3KHXVdyLLyW08vhREU2uVbTaSxSVrZVGnvG7Ne3kltyl/pupBl9eborTC+ksv2MUx+F2J7O9frQpbRf7t6K4xgcU2u1GRxq8/d6oN6DWTTrTmaslJbjdPLrXrESXotjA9p7KS7M5hIFbL326Ze2mTrmyzCp/fCNNKc/9NU6wSopf0ZspLj+29NVhP1EkOmR4jHsNXKDilNH2VBmO8yzea53VSQxZKFv7MsrVcIafoqC8LUBEqWxeWdZrU/CH2WpffC9EEWn9L0XZZeC9MnWXxIgywLFHv50t9HWVykWZjT8tdi9qm0ef9sftM7Yfosi4s0JiMdXBIxl9/2ShgbWWQk8Sv1AnWaT8fS+CEnTpUwczMXQZbWszfC2MjSPLfbfJoN8Re5lJmbucrSm3cYF1lSeYxpkzbmzE3bsnIWpTfvMD5k6VqaNlma+tlOEzA9/3DC25aVuzRFP5L5lKUraTTJHHPmpktZOUtTrDAhZIktjUYWqVvMmZuuZeUqTZHChJQlljRaWaRePh6TTMv1UVaO0hQnTAxZQktjmrTDCRdz5qbPsnKTpihhZJ+Si3/ZqWoD1yEfNsk96pOz3fn8j4KWesgmSS9Nji/iKV/IXn3jQtC5PKoGjBxcjDDSwNo5La6y+L7TpCLLcA7KgiHSUSqT3WQuz9zl25FTNK3iihHGdK2xBr8vWXxJk6IsaaVqGrUpQhjto5hvWVylSX3mZhqpmkYtihDGZEPSUHeWpc1oc6fQpkLMac7aupUeX4QwF2deNpqPH6uzLaQ0yNKtktkLY7KwuCCOvYNvCGmQpVtZpPTshTHZwVcmQElHW+wt43xKgyzdy1KEMCZLvna5IakPaZAlDVmKEMbk/aXrYRwu0iBLOrIUIcytT/a0En1q6wedz0e3lSbkzM1WcAQsI5D9O4yJMOufP55E09tIE2LmZhIwMq1EL4RJ4Q7j2rm5sBbzN5mmWTnVzl6YHN5hfHRucqdJQ7rshfnb8anWFV1SnOzE41kaAmhrkb0wJv0w8igjj2WpHUiTWou01yd7Yba9MF4de3Oy9UpTvMtIpZGmtemSCsheGEm4SzM7B4nXdmz95enq6md328Ki/7tmV+emcrzTRG+mQYHZCyMXYfJYJnHyaPZyPUQmJWlsplQjTTeyFCOMZhvxlKRxkQVpupGmiDuMoNPMiUlBGh+yIE18aYoRRvMu0/XjmU9ZmpTp8/KtMbUpRhiBtq1e4eRYvUmr6dHFnSaELM31dj3I1JR7znFFCSMNoV0MI6Y0NrLM37xXzyZda5RjsWaUGlWm0KDihElVGhtZZLGOM7M3KpnzY7I/Tap9TSW5U6QwqUljK8vJjz4f5Jpp5yaPZOHVLFaYVKRxlaVJgTZp+rx8a3hNvi+haGG0X858fz3zJcuwNCzfGlOP5WUVK0zbX+RR2H18CPAty3B9Wb61O2mKFMZFlqYpXKQJKUt3qULJQqA4YXzI4iINspQtVlHC+JRluNlNPtdK2dIHJCOPNUeodZ41dSDWnEAxwoSSpUEpiwAe/fOn1d/r7R6uXluYIiBlSv+IvFPs3/10/f8Pm5OvI5FFhSuJ4CKEsZFF04MeoqWQJQTV8OfMXhgbWZrF8eSuII9RsQ9kiU3cX3lZC+Mii+yoJYd27JkremRxJdjt77MVxocsDfpY0iBLt8nuo/QshfEpSwxppE/nd7+/VDVjw3w0HOfohkB2woSQpUE/vX1jdfBXPzMeTm/SZLLVxt6Ds9WVBBffMKk/MYsJZCVMSFkaLOMb1gzea0Qel0PuKrKJ03snPu3tFt0u/FL9bTbCxJBluJFsxUGUVFPdT72yECa2LMNopTNyyzPr673qf1hNbFpXyY7N44+veRAyf/N+3ZF5p/ri1r3q7IUbvd/H3k9apnuW5IXpUpZ0m42adUUgaWGQpau0oNzVCCQtjLZ/hO3tSPTQBJIWxmTvlwYQsoROFc4vBJIWxmQ7PrkIZCGZYxFIWhiTOwyyxEoVykn+DtP2DoMsJHFsAknfYUZ9JUOW2KlCecnfYaSCIo1M+52eenIwxks6Ck+evs6QE/K3EwJJ32E6IUKhEBhBAGFIDwgoCCCMAhahEEAYcgACCgIIo4BFKAQQhhyAgIIAwihgEQoBhCEHIKAggDAKWIRCAGHIAQgoCCCMAhahEEAYcgACCgIIo4BFKAQQhhyAgIIAwihgEQoBhCEHIKAggDAKWIRCAGHIAQgoCCCMAhahEEAYcgACCgIIo4BFKAQQhhyAgIIAwihgEQoBhCEHIKAggDAKWIRCAGHIAQgoCCCMAhahEEAYcgACCgIIo4BFKAQQhhyAgIIAwihgEQoBhCEHIKAggDAKWIRCAGHIAQgoCCCMAhahEEAYcgACCgIIo4BFKAQQhhyAgIIAwihgEQqB/wN6i4wsgfqHdgAAAABJRU5ErkJggg==;imageBorder=default;" parent="G508FOYGhCPixcz0TGum-40" vertex="1">
          <mxGeometry x="259" y="460" width="44" height="44" as="geometry" />
        </mxCell>
        <mxCell id="Mg3yFcx8kAndvRIRyK6S-9" value="END-USER LAYER" style="swimlane;horizontal=0;whiteSpace=wrap;html=1;fontSize=20;fontStyle=1;labelBackgroundColor=none;labelBorderColor=none;startSize=40;fillColor=#66B2FF;gradientColor=none;swimlaneFillColor=#F5FAFF;rounded=0;" parent="1" vertex="1">
          <mxGeometry x="40" y="40" width="980" height="320" as="geometry">
            <mxRectangle x="70" y="130" width="40" height="120" as="alternateBounds" />
          </mxGeometry>
        </mxCell>
        <mxCell id="Mg3yFcx8kAndvRIRyK6S-12" value="&lt;div style=&quot;font-size: 18px;&quot;&gt;Dinamiques&lt;/div&gt;&lt;div style=&quot;font-size: 18px;&quot;&gt;Administration&lt;br style=&quot;font-size: 18px;&quot;&gt;&lt;/div&gt;" style="rounded=1;whiteSpace=wrap;html=1;fontSize=18;fillColor=#66B2FF;fontStyle=1" parent="Mg3yFcx8kAndvRIRyK6S-9" vertex="1">
          <mxGeometry x="245" y="120" width="200" height="80" as="geometry" />
        </mxCell>
        <mxCell id="Mg3yFcx8kAndvRIRyK6S-13" value="&lt;div style=&quot;font-size: 18px;&quot;&gt;Dinamiques&lt;/div&gt;&lt;div style=&quot;font-size: 18px;&quot;&gt;Web&lt;br style=&quot;font-size: 18px;&quot;&gt;&lt;/div&gt;" style="rounded=1;whiteSpace=wrap;html=1;fontSize=18;fillColor=#66B2FF;fontStyle=1" parent="Mg3yFcx8kAndvRIRyK6S-9" vertex="1">
          <mxGeometry x="575" y="120" width="200" height="80" as="geometry" />
        </mxCell>
        <mxCell id="Mg3yFcx8kAndvRIRyK6S-19" value="login" style="rounded=1;whiteSpace=wrap;html=1;fontSize=12;fillColor=#004C99;fontStyle=1;fontColor=#ffffff;" parent="Mg3yFcx8kAndvRIRyK6S-9" vertex="1">
          <mxGeometry x="205" y="125" width="60" height="30" as="geometry" />
        </mxCell>
        <mxCell id="G508FOYGhCPixcz0TGum-1" value="main" style="rounded=1;whiteSpace=wrap;html=1;fontSize=12;fillColor=#004C99;fontStyle=1;fontColor=#ffffff;" parent="Mg3yFcx8kAndvRIRyK6S-9" vertex="1">
          <mxGeometry x="205" y="165" width="60" height="30" as="geometry" />
        </mxCell>
        <mxCell id="G508FOYGhCPixcz0TGum-2" value="&lt;div style=&quot;font-size: 12px;&quot;&gt;administrator detail&lt;br style=&quot;font-size: 12px;&quot;&gt;&lt;/div&gt;" style="rounded=1;whiteSpace=wrap;html=1;fontSize=12;fillColor=#004C99;fontStyle=1;fontColor=#ffffff;" parent="Mg3yFcx8kAndvRIRyK6S-9" vertex="1">
          <mxGeometry x="145" y="40" width="130" height="30" as="geometry" />
        </mxCell>
        <mxCell id="G508FOYGhCPixcz0TGum-3" value="&lt;div style=&quot;font-size: 12px;&quot;&gt;administrator list&lt;br style=&quot;font-size: 12px;&quot;&gt;&lt;/div&gt;" style="rounded=1;whiteSpace=wrap;html=1;fontSize=12;fillColor=#004C99;fontStyle=1;fontColor=#ffffff;" parent="Mg3yFcx8kAndvRIRyK6S-9" vertex="1">
          <mxGeometry x="285" y="40" width="130" height="30" as="geometry" />
        </mxCell>
        <mxCell id="G508FOYGhCPixcz0TGum-4" value="&lt;div style=&quot;font-size: 12px;&quot;&gt;article detail&lt;br style=&quot;font-size: 12px;&quot;&gt;&lt;/div&gt;" style="rounded=1;whiteSpace=wrap;html=1;fontSize=12;fillColor=#004C99;fontStyle=1;fontColor=#ffffff;" parent="Mg3yFcx8kAndvRIRyK6S-9" vertex="1">
          <mxGeometry x="135" y="210" width="130" height="30" as="geometry" />
        </mxCell>
        <mxCell id="G508FOYGhCPixcz0TGum-5" value="&lt;div style=&quot;font-size: 12px;&quot;&gt;article list&lt;br style=&quot;font-size: 12px;&quot;&gt;&lt;/div&gt;" style="rounded=1;whiteSpace=wrap;html=1;fontSize=12;fillColor=#004C99;fontStyle=1;fontColor=#ffffff;" parent="Mg3yFcx8kAndvRIRyK6S-9" vertex="1">
          <mxGeometry x="275" y="210" width="130" height="30" as="geometry" />
        </mxCell>
        <mxCell id="G508FOYGhCPixcz0TGum-6" value="&lt;div style=&quot;font-size: 12px;&quot;&gt;category detail&lt;br style=&quot;font-size: 12px;&quot;&gt;&lt;/div&gt;" style="rounded=1;whiteSpace=wrap;html=1;fontSize=12;fillColor=#004C99;fontStyle=1;fontColor=#ffffff;" parent="Mg3yFcx8kAndvRIRyK6S-9" vertex="1">
          <mxGeometry x="145" y="250" width="130" height="30" as="geometry" />
        </mxCell>
        <mxCell id="G508FOYGhCPixcz0TGum-7" value="&lt;div style=&quot;font-size: 12px;&quot;&gt;category list&lt;br style=&quot;font-size: 12px;&quot;&gt;&lt;/div&gt;" style="rounded=1;whiteSpace=wrap;html=1;fontSize=12;fillColor=#004C99;fontStyle=1;fontColor=#ffffff;" parent="Mg3yFcx8kAndvRIRyK6S-9" vertex="1">
          <mxGeometry x="285" y="250" width="130" height="30" as="geometry" />
        </mxCell>
        <mxCell id="G508FOYGhCPixcz0TGum-8" value="&lt;div style=&quot;font-size: 12px;&quot;&gt;teacher detail&lt;br style=&quot;font-size: 12px;&quot;&gt;&lt;/div&gt;" style="rounded=1;whiteSpace=wrap;html=1;fontSize=12;fillColor=#004C99;fontStyle=1;fontColor=#ffffff;" parent="Mg3yFcx8kAndvRIRyK6S-9" vertex="1">
          <mxGeometry x="135" y="80" width="130" height="30" as="geometry" />
        </mxCell>
        <mxCell id="G508FOYGhCPixcz0TGum-10" value="&lt;div style=&quot;font-size: 12px;&quot;&gt;teacher list&lt;br style=&quot;font-size: 12px;&quot;&gt;&lt;/div&gt;" style="rounded=1;whiteSpace=wrap;html=1;fontSize=12;fillColor=#004C99;fontStyle=1;fontColor=#ffffff;" parent="Mg3yFcx8kAndvRIRyK6S-9" vertex="1">
          <mxGeometry x="275" y="80" width="130" height="30" as="geometry" />
        </mxCell>
        <mxCell id="G508FOYGhCPixcz0TGum-11" value="&lt;div style=&quot;font-size: 12px;&quot;&gt;article details&lt;br style=&quot;font-size: 12px;&quot;&gt;&lt;/div&gt;" style="rounded=1;whiteSpace=wrap;html=1;fontSize=12;fillColor=#004C99;fontStyle=1;fontColor=#ffffff;" parent="Mg3yFcx8kAndvRIRyK6S-9" vertex="1">
          <mxGeometry x="610" y="210" width="130" height="30" as="geometry" />
        </mxCell>
        <mxCell id="G508FOYGhCPixcz0TGum-12" value="blog" style="rounded=1;whiteSpace=wrap;html=1;fontSize=12;fillColor=#004C99;fontStyle=1;fontColor=#ffffff;" parent="Mg3yFcx8kAndvRIRyK6S-9" vertex="1">
          <mxGeometry x="610" y="80" width="130" height="30" as="geometry" />
        </mxCell>
        <mxCell id="G508FOYGhCPixcz0TGum-100" value="" style="shape=image;verticalLabelPosition=bottom;labelBackgroundColor=default;verticalAlign=top;aspect=fixed;imageAspect=0;image=data:image/png,iVBORw0KGgoAAAANSUhEUgAAAMwAAADMCAYAAAA/IkzyAAAKP0lEQVR4Xu2dP4yUVRTFH4U2oMnSCMRtJBATNxYoJtCsCSGBQEKgwYJCCg1WJEYpKbAzxoRKoo0FhTRIgWKCJGCxJCIUBhKzBJsxLtuwCX8aLHQfukEjf+a8755vvm/ebxJi8+6d+37nnj07A+Msm5iY+DPxgAAEhiKwDMMMxYlDEHhAAMOwCBAQCGAYARZHIYBh2AEICAQwjACLoxDAMOwABAQCGEaAxVEIYBh2AAICAQwjwOIoBDAMOwABgQCGEWBxFAIYhh2AgEAAwwiwOAoBDMMOQEAggGEEWByFAIZhByAgEMAwAiyOQgDDsAMQEAhgGAEWRyGAYdgBCAgEMIwAi6MQwDDsAAQEAhhGgMVRCGAYdgACAgEMI8DiKAQwDDsAAYEAhhFgcRQCGIYdgIBAAMMIsDgKAQzDDkBAIIBhBFgchQCGYQcgIBDAMAIsjkIAw7ADEBAIYBgBFkchgGHYAQgIBDCMAIujEMAw7AAEBAIYRoDFUQhgGHYAAgIBDCPA4igEMAw7AAGBAIYRYHEUAhiGHYCAQADDCLA4CgEMww5AQCCAYQRYHIXAWBpm82svpL07XkqbN6xKk2uWo3KLBK7OLqRrs7fSmR9+S9+dH7T4zO081VgZZnL1inT08KaUDcNj9AQGc/fSngNn02Du7uiHCZpgbAwztW5lOnlsa3r+uWeC0NAmgsDtO/fT7kXTXLu+ENFu5D3GwjA5Wc4d34FZRr5Ojx4gm2bLvm/HImnGwjCXTu3mtUpHzbI01szl+bTnvbMdn/Lp4/XeMNvenExffjz99JtyYuQE8uuZmSvzI5+jyQC9N0x+kb9359omDKhticCJ0zfSwSMXW3o2z9P03jDfL752mVo/4aFD11AC+V2zjbu+Du3ZdrPeG+bmj/vaZsbzNSCw6o3jDapHX1qFYUpE+uCdV1P+86THJ1/8nPIfHn8TGOaHV4kWXeKLYR6jBobR1xTD6Mxar3CJhGF0KV1a6JP4KkgYEiZsuzBMGEpfI5dIJIyumUsLfRJfBQlDwoRtF4YJQ+lr5BKJhNE1c2mhT+KrIGFImLDtwjBhKH2NXCKRMLpmLi30SXwVJAwJE7ZdGCYMpa+RSyQSRtfMpYU+ia+ChCFhwrYLw4Sh9DVyiUTC6Jq5tNAn8VWQMCRM2HZhmDCUvkYukUgYXTOXFvokvgoShoQJ2y4ME4bS18glEgmja+bSQp/EV0HCkDBh24VhwlD6GrlEImF0zVxa6JP4KkgYEiZsuzBMGEpfI5dIJIyumUsLfRJfBQlDwoRtF4YJQ+lr5BKJhNE1c2mhT+KrIGFImLDtwjBhKH2NXCKRMLpmLi30SXwVJAwJE7ZdGCYMpa+RSyQSRtfMpYU+ia+ChCFhwrYLw4Sh9DVyiUTC6Jq5tNAn8VWQMCRM2HZhmDCUvkYukUgYXTOXFvokvgoSpsWEyV+HPrVuYvHLa5/1KVrYOX+VXv4eyiYPDNOEXku1LpEiEyYbJH8PZzZMlx9nzg/SwY8upvytxyUPlxYls7hqSJgWEiabJX95bR8eTb7tGMP0QGGXSFEJk1Pl5Gdbe0Dy4Yil33bs0qJL8EgYc8IMY7wuLUSe5fCnP6XPv/pFHgvDyMjaL3CJNMyiD/Mdl+++9XI68v7r7YNp8IzD3OtR7V1aNLhKeCkJY06YzRsWfyU7xq9kS5j5UthwD2sNXT/VohIm3ya/hun6O2RL1PM7ZfsPXdBE+Oe0S4uiYUxFJIw5YXL7/Lby0cOb0vbpbr9Tlt8he/vQ+cW3lf8oWjcMU4St3SKXSJEJs0Qk/3rWxaTJBrk6eyvlv7xs8nBp0WSm6FoSpoWEiRatq/0wTFeV+ddcLpEcCdMDnI1GdGnRaKjgYhKGhAlbKQwThtLXyCUSCaNr5tJCn8RXQcKQMGHbhWHCUPoauUQiYXTNXFrok/gqSBgSJmy7MEwYSl8jl0gkjK6ZSwt9El8FCdNiwvCJy5T4t2Q+Mw/V2fVTLTJh+MTlQykxzFBr7TvUB8PwiUsM43OA2LnrhuETl/8VlIQRFzz6eNcNM8yvdtFMmvbjE5ePJ8iLfvOLfj5xScI0/QEWWt/1hOETlxgmdOGbNuu6YfL9+MQlL/qb7nlYfR8MwycuMUzYwjdt1AfDLN2RT1zyF5dN971xfZ8M0/iyHW/g0qJL1+ZdMvO7ZF0S2z0LhnETDujvEmmYvz8p/R/eBVy7ky1cWnTpsiQMCRO2jxgmDKWvkUskEkbXzKWFPomvgoQhYcK2C8OEofQ1colEwuiaubTQJ/FVkDAkTNh2YZgwlL5GLpFIGF0zlxb6JL4KEoaECdsuDBOG0tfIJRIJo2vm0kKfxFdBwpAwYduFYcJQ+hq5RCJhdM1cWuiT+CpIGBImbLswTBhKXyOXSCSMrplLC30SXwUJQ8KEbReGCUPpa+QSiYTRNXNpoU/iqyBhSJiw7cIwYSh9jVwikTC6Zi4t9El8FSQMCRO2XRgmDKWvkUskEkbXzKWFPomvgoQhYcK2C8OEofQ1colEwuiaubTQJ/FVkDAkTNh2YZgwlL5GLpFIGF0zlxb6JL4KEoaECdsuDBOG0tfIJRIJo2vm0kKfxFdBwpAwYduFYcJQ+hq5RCJhdM1cWuiT+CpIGBImbLswTBhKXyOXSCSMrplLC30SX0UVCePDR2eVAN+irBILPn/p1O40uWZ5cFfaOQhcm11IW/Z942jdWs/eJ8zRw5vS3p1rWwPGE5UTOHH6Rjp45GJ5gw5U9t4wffyW4g7oPpIR9n94IZ25MBjJc0c9ae8Nk0H06VuKo4TrW5/B3N20cdepvo39v3nHwjCTq5enc8d3pPxtxTy6R+D2nfsPXrsM5u51bzhxorEwTL7z1LqJdPLYVkwjLoD7eDbLngNn09XrC+6naqX/2Bgm08pJk389m1yzohV4PMmTCcxcnl98kT8zFsmydNOxMszSpbZNT6bt0y+mV9avTFPrJ9jrFgkMfr+XZq7cTCdO/7r43/kWn7mdpxpLw7SDjmepkQCGqVF17lxMAMMUo6OwRgIYpkbVuXMxAQxTjI7CGglgmBpV587FBDBMMToKaySAYWpUnTsXE8AwxegorJEAhqlRde5cTADDFKOjsEYCGKZG1blzMQEMU4yOwhoJYJgaVefOxQQwTDE6CmskgGFqVJ07FxPAMMXoKKyRAIapUXXuXEwAwxSjo7BGAhimRtW5czEBDFOMjsIaCWCYGlXnzsUEMEwxOgprJIBhalSdOxcTwDDF6CiskQCGqVF17lxMAMMUo6OwRgIYpkbVuXMxAQxTjI7CGglgmBpV587FBDBMMToKaySAYWpUnTsXE8AwxegorJEAhqlRde5cTADDFKOjsEYCGKZG1blzMQEMU4yOwhoJYJgaVefOxQQwTDE6CmskgGFqVJ07FxPAMMXoKKyRAIapUXXuXEwAwxSjo7BGAhimRtW5czEBDFOMjsIaCWCYGlXnzsUEMEwxOgprJIBhalSdOxcT+Asfczr/UCMiLQAAAABJRU5ErkJggg==;imageBorder=default;" parent="Mg3yFcx8kAndvRIRyK6S-9" vertex="1">
          <mxGeometry x="420" y="120" width="44" height="44" as="geometry" />
        </mxCell>
        <mxCell id="G508FOYGhCPixcz0TGum-101" value="" style="shape=image;verticalLabelPosition=bottom;labelBackgroundColor=default;verticalAlign=top;aspect=fixed;imageAspect=0;image=data:image/png,iVBORw0KGgoAAAANSUhEUgAAAMwAAADMCAYAAAA/IkzyAAATo0lEQVR4Xu1dTYxVRRa+LsaNPTL0QtHYLnBEDa2TCE5iL6ZJdBKwTfxZCEYXkMhk3AyDad01E+mdGg1uZiILSUajzMLBRGwSJaE3kAxgMkoHB6ML2ii6ANF2o4uZ+u7zMo/2vXfPua/+71dJp5WuW/fUd+q7VXXOqVNXrFy58r8FCxEgAiIEriBhRDixEhEoESBhOBCIgAIBEkYBFqsSARKGY4AIKBAgYRRgsSoRIGE4BoiAAgESRgEWqxIBEoZjgAgoECBhFGCxKhEgYTgGiIACARJGARarEgEShmOACCgQIGEUYLEqESBhOAaIgAIBEkYBFqsSARKGY4AIKBAgYRRgsSoRIGE4BoiAAgESRgEWqxIBEoZjgAgoECBhFGCxKhEgYTgGiIACARJGARarEgEShmOACCgQIGEUYLEqESBhOAaIgAIBEkYBFqsSARKGY4AIKBAgYRRgsSoRIGE4BoiAAgESRgEWqxIBEoZjgAgoECBhFGCxKhEgYTgGiIACARJGARarEgEShmOACCgQIGEUYLEqESBhOAaIgAIBEkYBlquqY9ddVWy+/6Zi4s5ri7HrRoqx668qX/Xtdz8Wp86cLw7NLxZz858Xi18uuRKB7QoRIGGEQLmoNrHu2mL6iTsK/JaUoye/KmZePFEsfHJBUp11HCBAwjgAta7Jq395ZTG9/Y7iD1turava8+/73/m0eGHvR5xxGqE33EMkzHD4qZ/GbLJnZuLSskvdwE8PLH75fbF1+ghnm6YANnyOhGkIXJPHMKPsfmp9k0f7PvPC3g/NbPOh1TbZWH8ESBhPowNLMPy4KCSNC1R7t0nCeMAas0rT/YpUvL1vnC5mXjoprc56DREgYRoCJ31sz64JYzJeLa0+VD0YA3bsPjZUG3x4MAIkjKMRAkvY7M713shSdQOkwUzz7Xc/OOpZu5slYRzoH2R566+/L8bXrFS1DsfkzIsni6MfnCuf2zR5o/HT3G4saiOqdk6duVA8/OR7JI0KNVllEkaGk7gWPPWvPj+pJssrb35c7DJOyV6licEAZueH//gefTVizckqkjAynES1xm8eLclShbZIHsLSaealE8X+dz4bWH3j5Fjx8q67C8xe0kLSSJGS1yNh5Fj1rYlBDCuY1myMJdi26fnilDDUZfzmlT8RUrdEg9kZhGQs2vDKJmGEGCJAsrusvWW0uHHVVcVas0/BXuPqX/5C2FKnGgZvZ8n0veo5yIH9kXZfg/ccPXmuWDD7GxD0opnZKsPAxaUfud8RaqHVhMHMgI05vtwY+GvXjBYrRq4sVph/1xJAiPdQZKne0ZQ0GhkRKQ1Sgdj4jYDPox98ZaKnL7SaXK0kTBUlPG4I4pIYvQZo05lleVs+SNOPYHNHFov9735WHDK/21ZaRRhtOL3twYCzLduenlcvw/rJEZI0nWVl+yxxrSFME9OsTcLgLMvWZ46Uh8JsFiwrX565u9i4Ycxms6q22hTL1grChCbLIB+LamQOqBy6j20hTfaECTmQYIXaapZg2Cz7KDjm3CQywJZsbSBN1oSB1/342w/aGg+qdjB4XnnztPUlWJ0Q2NfgIwHyhCgwlfv6QIToX9aEOX7gIZXXfVgFLH7xfbH/4KdBiNLLirb90VuLTb8bU/tshsEBezXEseVasiUMNsH7npu0pjcsry52bdhhHi59FEvGR3Hmm9IpqHVCWhOupiH4mW4wAZwT664xztaRMrwGP/A5oawwTldNyE2d3DnPMtkSBjFdm0z8laTgq3jqk/Nm0H9tBv/58pFYB7+kPzbqYGkHQoFocO4ilk0afZ3zLJMtYc796/HaceN7U14rUOQVsC+a3bmudjYCrusfPJBlRECWhIGDEvFWdQWnE3HgikWOAJINvvW3emxzXZZlSRhJdhYEId7z+EH5SGHNSwjgY1SXfBBne+B/yq1kSRjJ/qUNPgNXg1WS1CPX/AJZEkbyBURM15zJWcyiR0Bigcx1Bs+SMBL/yz2PHWTWSD1XyidgQTv+9kMDn4aV8a4H/tnwDfE+liVhzhx+pNaSA2W23XTcdFhKCANL2Zp7/tH0FdE+lyVhJCblVb99LRqlwGmITXR5eG3kciciSA0HaWwHt1LD2JaySRhbSCraAUHgVJ248xrzs0ocvlMdM0asFu6LCZl7jIRRKDz2qrEqE57yR0wWzC1Tvx76pCfO1czNnw127UWsGLsem5xhXCNcbpJHTATx7c4iiEPcF0PCeBg4Pl6B5Q42/YOKzw1pJ/3Sb4aeUeqwQ5/gKPR19UVbDSvZzTASC44PkyeIi2jpOo94HRG0f0eCil0mt7LrHGQS032OlkgSRjsiBfWxBOvkDrs8l5ngUStVfCSnIGGsqCp8I8gvdvi1qYGCuPRChyZL1XHXpJEQJkfncHYzjCRS2dV5jVjI0k0aBJi6MD+3NfwoO8JIIpWxzt/2zLz16XCPSRbe9Cw9jjfj8NrZc0uX8gAgySBOSGLW1KaGrToXsq85RixnRxjJoHWR9gi3jOG2MU2pLFswC9eF6cCYgRzO27fcoiaPi4Hb1ojlrAgjXRLZjlSWvrciE4jSySrT7LyINp2SixOQkAEfpzrzfW4nL7MijDQHme3NqGRWqwYW9k87dh+tnVHqZirMOK8+v0F8zt72+R+J+R59sP3eOlxc/z0bwkhzkME/cdcDB6zhivcefu2+2uhovBB3tIAsNov00lkXs4zEUoa+2v5A2cRP21YWhNEsiWzvX6R7FyQiv/fxd7X6EdV/35jRJRldbO9lpDO6axO3CCRLlZInDDzqh/8+JXYS2vY+S8yr+LrDvFu3sW+qUyyP4Huqyy1m25wuCUOq+pTLRbVJE0Z7W7GLc+aSIEQf63jJ197Fskzy3pxIkzRhpOt3KMzWRUbds4DESYr6tme1XjOR9Gtvez+B95448GDt7FbJ7OKj1XRmbvJcsoTRkAXAuMhBJkkGYXsZNEjJkuUhjA51NzZrB5I0V1kOpEmSMBKnWbfSXS2JJMsR20aGQYNZgovtjX8lj+Td3bLvfeO0uW79pJabwesnRxjJIO1GFfcwbnUQBoN3SGRxRdZeIye0PJIZzseHzCWrkiKMZEB0g4V9Syf40O41edU7JPK0iTBaIwxwdDXjuSJNMoQZv3m0eP/1+8Q4uNjkL395bISRZPx0PUCbXFSbUh7mJAijcUxiUPsgC94jiYz2OcNIPO8+BqeWNPBPuTqGIP7CCismQRhNrJYvsgBfiXXIxwAtZRHeWODDxA15tKRJxQgQPWEQ8oHQD0nxSZZKnkEbXVdnUXphIQmPsR1HV6cTLWl8fVzq5B709+gJI7W8wIsNwE99cmEYPNTPYqOLGXD5bWfwv2x95ogzg0O3oJKlIeqHcBriukDcJ1MXtgP5fPqs1Ir+6YGoCSONQEZfcL33oYDZ+LE8w7IIFjkEWvq6SVhjDAn1Bd88Zc7O/GXw2ZlqAPtaMmZJGOmX0+fGuinQLp4DQfc9t0GU88xl4g9J36SOzdh1GfUMI1mO+V6XSwaH6zpY3sCkjQ+KtLgIDZK+u6p33MSc1eUmiH1ZFjVhJNkVYxgI2oHTtD6IsmVqtTnXf5v4OEOovUuvPuIm5n3mdutBxUeSxab447moCSMJnccdJC7SCA0Dqq1nQRBYmsbXjJaZ/pEEA5lkNCWE5bCffNKI6piuIlneFxJGM/oc18WeZPqJO0qCaInRT7TQxpBuuUgYxwNI4rne9vSR8q6U1Iv0qLOmn7FtoCV99JkoXoNlVTfqGUa26U//LkVt6I9E0bGRBTJLPoDc9Eu026eOJLgRj6YSVtEPCsmXVwOj6wBLjSxVXakuY5S9u79RzzDS3FfokIuThE0GRpNnpIOprm1s8Hc8e8yb07ROnurvGydvMNaxDaLqdFyKYOpfSbIsw9NY+z5kQmMWPIfGDNm98nEbhOlcpvRvL6E4mj4jEqETGlNv3Yt9OYZ+Rz3DQEBJRHClwFTzXw1DmM4FSiecpXDSkGN5Xe3ezHaCjmFk7/ds9ISB4NKwCtRNkTRawiDT//6Dn5rczKejm1GqgaYlS4jA0CaESoIwnWR999WGVaQ600gIg+XK/oOfmYjec1HOJt2DT0uWmJyrdSRKgjDapVlqM40kyDRGM3GvwaUlC9q497GD3o9l1BEj6SVZJTxiqGafWifuayrpSSX7tFCh+WKwTUVt2l60ncqHoMIhmRmmEliyfOlWcgqWF8gby8lNDUGW18Wt0UhuKC2pkQX9So4wEFpjBED9FBybMZzclA70XvW0HzKfCQ6H6dfyZ5MkDDqhTRWbwpIG/Qp1cnOYQaWNVHBxT84w8mueTZYwWtK4yFyvATrXutpNfspkSXZJVg0+babFFNfMsRNNkwILuQ4efvK9aH1HEqyTnmHQQS1pcj5wJlG4zTqaJCWu0/ba7NegtpInDDqnyX/FWcbe0JIaX1JyTNahkwVh0Enkv3r/9fqEf7GfGa9TWEx/l5xvgbyxRyBrMM2GMOi01LSZkwI1yrZZd63JSIp7NetKbjN6VoSRXh+X8tmZugHq6++S29dyWopVuGZFGHRKYrVJ1WnmiwyS90j2L6lEIEv6my1hJIGMsSoSMyRyNMOIgYI80QjtiTGNVAx30WgGuq262c0wkqVCjPFlnUyWt/U8mRjjPkByEjaV6AoNmbIjjGQzGpOlTOpHii3yWnK9RgonKDVkQd3sCCNJnBETYSR7gUqpMQWRSkzKOVojSRjtJ8ZifY2nvHptLMscEsbiQAjZlGSGiSW7omZ2qTCNZT8jSRSfYxhSdjMMBpYkiXkMCa8lG+flHx+f1wAO+vClgrHtjzcJYxtRRXtNCBOLhY+EUSg69qqpKFPiZOUME9do4wwTUB+b7zd3P5oLZTUllgukUvkoabCV1M2SMJINaQwmT32+tSUT+XtAolendVIyrNgGIkvCpGTylKRYis2knJpz2CZpsiSMxAu9zVxTPhfwmvJuJeLux9md6/pm9oQZ/E+7jwW9Vv0yeU0qJaRUGlRiMU7YJAvaypIwks10bBHLWOZsf/RWkzVmlbmyb2Wp51hzKEvOHcVi/iZhBAhIIpZz/QIK4Bm6imQGj8XBOnRnlzWQ5Qwj3RfEEmZiW6ku25PmIMsV2ywJIz15ib3BjLlbBbmyWOoRwC3P+57bILocKcewmGz3MOiYxouO0PlDxgCAA1uLXyyVB7YQ0dzmUh1iW3vLqNlXXWOSjJjfhjCSkuv+JWvCSJdlkgGAOt9+92Nx0RAJ5eLSDyWp8P+L55bMnZJfl0RbMMSLsWDwT6xbVaxd86tixciV5kTnSPlTlRXmpKfkSj1p32KyQEplltbLcklWdV4zy0gBG1QPs9Lc/FmT/Pw/ZoZastFk4zawLIXxY/PUTcZc3Tny7KOg3zE4V131NWvC2J5lNEpA3oAX9n7knTgVUWD6DVFiiKBw2e+sCQPgJD4DVwBjxsHNxr6MCppNuYs+52pK7sYqe8KEJg3e72MgNTmMZpM0PvpoU96mbbWCMDGQBpajHbPHrKdMwhIMYSpSC1bTgTLoubaQBRi0hjDorCZpuYuBZftKdFi6kB+sCqVxIfOgNhEtAbIc/eAr368O9r5WEaZCGcGOW6ZWq+5jtKUhW6TRXmRkS36Y0+G3ahtRKvxaSZiq8/A9VA45ZP/H8gYDcYX5d/y3qzIsaXyQpeNnMr4n43NaMBchLZz5xhDlvHHunk/6QqRhddpqwmjAA7ng9EPBbxBqfM1o6QyE+Xrs+v87AiXtNiVNU7KAADjOgIF/1vhKQILu0vbIBonOWreHkYKirYe9EY4ba30fGKRbp48UCyYkR1IwG2LPonVEYvn0ypunWz0zSPCV1OEMI0FJWKeJUUF6OAxRwrM771KFsMDrvm16voyRY7GDAAljB8dLrTQhDR4eZJpt4mPBfgMxXVxq2VUwCWMXz7I1aYLx5a+uIgPm5j8v/wTfyuyf16uXYDncVuxALVaaJGGswPjzRkCa2Z3rzd5mtaM39G4WYTgzLx3nfsUR6iSMI2CrZvfsmvBGGpAF1xGyuEOAhHGH7aWWm+xBtGLFltRDK38q9UkYT5pyGTXdplguT+rq+xoSxqMGXJBm14snjI/lY4+9aPerSBjP+kcITsf5qIsM+LlFbanY8eyxVgU+elZVz9eRMAG0AF8NZhtEBzQpmFFwMA15Blj8IkDC+MX7srchRzFMz9KzLG0Mpw+oHs4wsYFfyYMZZ9PkjcXGyRvKsy1VpDRSxSK8BedNkCOAXvvwGuQME14HlCAhBEiYhJRFUcMjQMKE1wElSAgBEiYhZVHU8AiQMOF1QAkSQoCESUhZFDU8AiRMeB1QgoQQIGESUhZFDY8ACRNeB5QgIQRImISURVHDI0DChNcBJUgIARImIWVR1PAIkDDhdUAJEkKAhElIWRQ1PAIkTHgdUIKEECBhElIWRQ2PAAkTXgeUICEESJiElEVRwyNAwoTXASVICAESJiFlUdTwCJAw4XVACRJCgIRJSFkUNTwCJEx4HVCChBAgYRJSFkUNjwAJE14HlCAhBEiYhJRFUcMjQMKE1wElSAgBEiYhZVHU8AiQMOF1QAkSQoCESUhZFDU8AiRMeB1QgoQQIGESUhZFDY8ACRNeB5QgIQRImISURVHDI0DChNcBJUgIARImIWVR1PAIkDDhdUAJEkKAhElIWRQ1PAIkTHgdUIKEEPgfVq/1LPufIysAAAAASUVORK5CYII=;imageBorder=default;" parent="Mg3yFcx8kAndvRIRyK6S-9" vertex="1">
          <mxGeometry x="750" y="120" width="44" height="44" as="geometry" />
        </mxCell>
        <mxCell id="G508FOYGhCPixcz0TGum-61" style="edgeStyle=orthogonalEdgeStyle;rounded=0;orthogonalLoop=1;jettySize=auto;html=1;strokeColor=#A50040;fillColor=#d80073;strokeWidth=4;" parent="1" source="Mg3yFcx8kAndvRIRyK6S-10" edge="1">
          <mxGeometry relative="1" as="geometry">
            <mxPoint x="40" y="160" as="targetPoint" />
            <Array as="points">
              <mxPoint x="-40" y="850" />
              <mxPoint x="-40" y="160" />
            </Array>
          </mxGeometry>
        </mxCell>
        <mxCell id="Mg3yFcx8kAndvRIRyK6S-10" value="&lt;font style=&quot;font-size: 20px;&quot;&gt;FOUNDATION LAYER&lt;br style=&quot;font-size: 20px;&quot;&gt;&lt;/font&gt;" style="swimlane;horizontal=0;whiteSpace=wrap;html=1;fontSize=20;fontStyle=1;labelBackgroundColor=none;labelBorderColor=none;startSize=40;fillColor=#66FF66;swimlaneFillColor=#D1FFD7;" parent="1" vertex="1">
          <mxGeometry x="40" y="680" width="980" height="320" as="geometry">
            <mxRectangle x="40" y="680" width="40" height="120" as="alternateBounds" />
          </mxGeometry>
        </mxCell>
        <mxCell id="Mg3yFcx8kAndvRIRyK6S-16" value="HTML Color Picker" style="rounded=1;whiteSpace=wrap;html=1;fontSize=18;fillColor=#66FF66;fontStyle=1" parent="Mg3yFcx8kAndvRIRyK6S-10" vertex="1">
          <mxGeometry x="150" y="120" width="200" height="80" as="geometry" />
        </mxCell>
        <mxCell id="Mg3yFcx8kAndvRIRyK6S-17" value="Markdown Renderer" style="rounded=1;whiteSpace=wrap;html=1;fontSize=18;fillColor=#66FF66;fontStyle=1" parent="Mg3yFcx8kAndvRIRyK6S-10" vertex="1">
          <mxGeometry x="630" y="120" width="200" height="80" as="geometry" />
        </mxCell>
        <mxCell id="Mg3yFcx8kAndvRIRyK6S-18" value="&lt;div&gt;Markdown Editor&lt;/div&gt;" style="rounded=1;whiteSpace=wrap;html=1;fontSize=18;fillColor=#66FF66;fontStyle=1" parent="Mg3yFcx8kAndvRIRyK6S-10" vertex="1">
          <mxGeometry x="390" y="120" width="200" height="80" as="geometry" />
        </mxCell>
      </root>
    </mxGraphModel>
  </diagram>
</mxfile>
